<svg width="19" height="19" viewBox="0 0 19 19" fill="none" xmlns="http://www.w3.org/2000/svg">
<path d="M8.32399 14.2375C9.11192 14.2375 9.89214 14.0823 10.6201 13.7808C11.348 13.4793 12.0095 13.0373 12.5666 12.4802C13.1238 11.923 13.5657 11.2616 13.8673 10.5336C14.1688 9.80569 14.324 9.02547 14.324 8.23754C14.324 7.44961 14.1688 6.6694 13.8673 5.94144C13.5657 5.21349 13.1238 4.55205 12.5666 3.9949C12.0095 3.43775 11.348 2.99579 10.6201 2.69427C9.89214 2.39274 9.11192 2.23754 8.32399 2.23754C6.73269 2.23754 5.20657 2.86968 4.08135 3.9949C2.95613 5.12012 2.32399 6.64624 2.32399 8.23754C2.32399 9.82884 2.95613 11.355 4.08135 12.4802C5.20657 13.6054 6.73269 14.2375 8.32399 14.2375ZM14.644 13.1435L18.224 16.7235C18.3194 16.8159 18.3955 16.9263 18.4479 17.0483C18.5002 17.1703 18.5277 17.3016 18.5287 17.4344C18.5298 17.5671 18.5044 17.6988 18.454 17.8217C18.4037 17.9445 18.3293 18.0561 18.2354 18.1499C18.1414 18.2438 18.0297 18.3179 17.9068 18.3681C17.7838 18.4183 17.6521 18.4435 17.5194 18.4423C17.3866 18.441 17.2554 18.4134 17.1334 18.3609C17.0115 18.3084 16.9012 18.2321 16.809 18.1365L13.229 14.5565C11.6215 15.8044 9.59878 16.3927 7.57274 16.2017C5.5467 16.0108 3.66959 15.0549 2.32354 13.5286C0.977486 12.0024 0.263674 10.0205 0.327415 7.98647C0.391156 5.95244 1.22766 4.01917 2.66664 2.58019C4.10561 1.14121 6.03889 0.30471 8.07291 0.240969C10.1069 0.177228 12.0888 0.891039 13.6151 2.23709C15.1413 3.58315 16.0972 5.46026 16.2882 7.4863C16.4792 9.51234 15.8908 11.535 14.643 13.1425L14.644 13.1435Z" fill="#181725"/>
</svg>
